<?xml version="1.0" ?><svg id="Roaming" style="enable-background:new 0 0 32 32;" version="1.1" viewBox="0 0 32 32" xml:space="preserve" xmlns="http://www.w3.org/2000/svg" xmlns:xlink="http://www.w3.org/1999/xlink"><style type="text/css">
	.st0{fill:#55C1FA;}
	.st1{fill:#2A80AD;}
</style><g><path class="st0" d="M17,10.17h2.752C19.106,8.46,18.176,6.866,17,5.462V10.17z"/><path class="st0" d="M15,10.17V5.447c-1.2,1.408-2.146,3.006-2.806,4.723H15z"/><path class="st0" d="M15,15.013V12.17h-3.433c-0.225,0.931-0.362,1.882-0.42,2.843H15z"/><path class="st0" d="M9.147,17.014H4.042c0.08,0.98,0.28,1.932,0.59,2.847h4.895C9.327,18.925,9.199,17.975,9.147,17.014z"/><path class="st0" d="M22.368,19.86h5.001c0.31-0.914,0.51-1.867,0.59-2.847h-5.197C22.706,17.971,22.574,18.922,22.368,19.86z"/><path class="st0" d="M17,15.013h3.768c-0.055-0.976-0.186-1.923-0.402-2.843H17V15.013z"/><path class="st0" d="M9.526,12.17H4.63c-0.309,0.913-0.509,1.865-0.589,2.843h5.106C9.199,14.053,9.326,13.104,9.526,12.17z"/><path class="st0" d="M22.77,15.013h5.188c-0.08-0.979-0.28-1.93-0.589-2.843h-4.964C22.601,13.105,22.723,14.054,22.77,15.013z"/><path class="st0" d="M18.643,4.322c1.424,1.733,2.525,3.701,3.23,5.819c0.003,0.01,0.005,0.019,0.008,0.029h4.6   c-0.323-0.574-0.695-1.127-1.117-1.652C23.637,6.368,21.27,4.911,18.643,4.322z"/><path class="st0" d="M13.332,27.696c-1.427-1.719-2.538-3.678-3.255-5.788c-0.005-0.016-0.009-0.032-0.014-0.048H5.521   c0.323,0.573,0.693,1.124,1.114,1.647C8.355,25.648,10.715,27.102,13.332,27.696z"/><path class="st0" d="M15,17.014h-3.853c0.058,0.963,0.195,1.914,0.421,2.847H15V17.014z"/><path class="st0" d="M26.479,21.86h-4.658c-0.002,0.006-0.004,0.013-0.006,0.02c-0.735,2.139-1.874,4.124-3.334,5.852   c2.697-0.566,5.122-2.031,6.883-4.223C25.785,22.985,26.156,22.433,26.479,21.86z"/><path class="st0" d="M5.519,10.17h4.543c0.006-0.017,0.009-0.034,0.015-0.05c0.719-2.114,1.832-4.075,3.257-5.79   c-2.632,0.595-4.98,2.05-6.698,4.188C6.214,9.043,5.842,9.595,5.519,10.17z"/><path class="st0" d="M17,21.86v4.525c1.133-1.354,2.041-2.883,2.685-4.525H17z"/><path class="st0" d="M15,21.86h-2.805c0.661,1.717,1.609,3.315,2.805,4.719V21.86z"/><path class="st0" d="M17,17.014v2.847h3.325c0.231-0.931,0.372-1.883,0.435-2.847H17z"/><path class="st1" d="M28.996,21.177C29.646,19.542,30,17.79,30,16.013c-0.001-1.833-0.376-3.64-1.066-5.319   c-0.505-1.227-1.173-2.387-2.011-3.429c-5.237-6.882-16.589-6.925-21.846,0c-0.882,1.1-1.582,2.329-2.092,3.633   C2.347,12.519,2,14.254,2,16.013c0,1.777,0.354,3.528,1.004,5.162c0.51,1.286,1.201,2.499,2.073,3.585   c5.277,6.923,16.576,6.92,21.846,0.001C27.795,23.676,28.486,22.463,28.996,21.177z M27.369,19.86h-5.001   c0.206-0.939,0.338-1.889,0.393-2.847h5.197C27.879,17.994,27.678,18.946,27.369,19.86z M4.63,12.17h4.896   c-0.2,0.934-0.327,1.883-0.379,2.843H4.041C4.121,14.035,4.321,13.083,4.63,12.17z M27.959,15.013H22.77   c-0.047-0.96-0.17-1.909-0.365-2.843h4.964C27.679,13.083,27.879,14.034,27.959,15.013z M20.768,15.013H17V12.17h3.365   C20.582,13.09,20.713,14.038,20.768,15.013z M17,10.17V5.462c1.176,1.404,2.106,2.997,2.752,4.708H17z M15,10.17h-2.806   C12.854,8.453,13.8,6.855,15,5.447V10.17z M15,12.17v2.843h-3.853c0.058-0.962,0.195-1.912,0.42-2.843H15z M4.042,17.014h5.106   c0.052,0.961,0.18,1.911,0.38,2.847H4.632C4.322,18.946,4.121,17.994,4.042,17.014z M11.147,17.014H15v2.847h-3.432   C11.342,18.928,11.205,17.977,11.147,17.014z M15,21.86v4.719c-1.196-1.404-2.144-3.003-2.805-4.719H15z M17,21.86h2.685   c-0.643,1.642-1.551,3.171-2.685,4.525V21.86z M17,19.86v-2.847h3.761c-0.063,0.964-0.205,1.915-0.435,2.847H17z M21.881,10.17   c-0.003-0.01-0.005-0.019-0.008-0.029c-0.705-2.118-1.806-4.086-3.23-5.819c2.627,0.589,4.993,2.046,6.721,4.196   c0.422,0.525,0.794,1.077,1.117,1.652H21.881z M13.334,4.329c-1.425,1.716-2.538,3.676-3.257,5.79   c-0.006,0.017-0.009,0.034-0.015,0.05H5.519c0.323-0.575,0.695-1.127,1.117-1.652C8.354,6.38,10.702,4.925,13.334,4.329z    M10.063,21.86c0.005,0.016,0.009,0.032,0.014,0.048c0.717,2.11,1.829,4.069,3.255,5.788c-2.617-0.594-4.977-2.047-6.696-4.188   c-0.421-0.524-0.792-1.075-1.114-1.647H10.063z M18.481,27.732c1.46-1.728,2.599-3.713,3.334-5.852   c0.002-0.006,0.004-0.013,0.006-0.02h4.658c-0.323,0.573-0.694,1.124-1.115,1.648C23.603,25.701,21.179,27.166,18.481,27.732z"/></g></svg>