<?xml version="1.0" encoding="iso-8859-1"?>
<!-- Generator: Adobe Illustrator 19.1.0, SVG Export Plug-In . SVG Version: 6.00 Build 0)  -->
<svg version="1.1" id="Capa_1" xmlns="http://www.w3.org/2000/svg" xmlns:xlink="http://www.w3.org/1999/xlink" x="0px" y="0px"
	 viewBox="0 0 63 63" style="enable-background:new 0 0 63 63;" xml:space="preserve">
<g>
	<g id="group-58svg">
		<path id="path-1_52_" d="M53.892,55.347H10.163C5.049,55.347,0,51.618,0,46.066V22.676c0-5.222,4.309-9.635,9.66-9.635
			c0.828,0,1.394,0.672,1.394,1.5c0,0.829-0.512,1.5-1.34,1.5C5.987,16.041,3,19.08,3,22.676v23.391
			c0,3.701,3.573,6.281,7.163,6.281h43.729c3.504,0,6.108-2.407,6.108-6.281V22.676c0-3.782-2.861-6.635-6.372-6.635
			c-0.827,0-1.607-0.671-1.607-1.5c0-0.828,0.832-1.5,1.661-1.5c5.22,0,9.318,4.142,9.318,9.635v23.391
			C63,51.618,59.084,55.347,53.892,55.347z"/>
		<path id="path-2_52_" d="M31.995,37.403c-1.617,0-3.227-0.402-4.667-1.205L2.76,20.899c-0.703-0.438-0.918-1.363-0.481-2.066
			c0.439-0.705,1.364-0.916,2.067-0.481l24.505,15.262c1.955,1.086,4.453,1.07,6.458-0.074l23.896-15.18
			c0.701-0.445,1.626-0.238,2.071,0.462c0.444,0.699,0.238,1.626-0.462,2.07L36.857,36.108
			C35.347,36.972,33.667,37.403,31.995,37.403z"/>
		<path id="path-3_40_" d="M34.075,13.485l0.27-1.192h2.836l-1.633,7.702c-0.102,0.487-0.151,0.809-0.151,0.967
			c0,0.165,0.041,0.294,0.123,0.386c0.083,0.094,0.182,0.14,0.295,0.14c0.387,0,0.887-0.252,1.5-0.757
			c0.612-0.505,1.145-1.193,1.6-2.063c0.455-0.87,0.682-1.821,0.682-2.852c0-0.859-0.162-1.668-0.489-2.428
			c-0.326-0.758-0.796-1.418-1.412-1.976c-0.617-0.559-1.377-0.995-2.283-1.311c-0.906-0.315-1.932-0.472-3.078-0.472
			c-1.166,0-2.238,0.152-3.211,0.456c-0.975,0.305-1.83,0.741-2.568,1.311c-0.737,0.569-1.354,1.273-1.848,2.111
			c-0.436,0.73-0.77,1.54-0.998,2.427c-0.231,0.888-0.344,1.794-0.344,2.718c0,1.232,0.244,2.358,0.737,3.378
			c0.49,1.021,1.203,1.877,2.136,2.568c0.936,0.691,2.065,1.181,3.389,1.472c1.326,0.289,2.822,0.349,4.49,0.177
			c1.326-0.157,2.447-0.459,3.369-0.903c0.92-0.444,1.698-1.067,2.336-1.869h2.287c-0.371,0.766-0.857,1.451-1.455,2.052
			c-0.597,0.602-1.299,1.108-2.099,1.52c-0.803,0.412-1.702,0.725-2.698,0.94c-0.994,0.215-2.08,0.322-3.254,0.322
			c-1.761,0-3.347-0.23-4.759-0.692c-1.41-0.463-2.598-1.129-3.561-1.998c-0.963-0.871-1.691-1.909-2.185-3.116
			c-0.495-1.206-0.743-2.54-0.743-4.001c0-1.526,0.254-2.95,0.764-4.276c0.508-1.324,1.24-2.476,2.197-3.453
			c0.955-0.978,2.123-1.742,3.502-2.294c1.377-0.551,2.899-0.827,4.559-0.827c1.361,0,2.609,0.199,3.744,0.596
			c1.135,0.398,2.107,0.969,2.916,1.714c0.811,0.745,1.428,1.627,1.854,2.648c0.425,1.02,0.638,2.147,0.638,3.378
			c0,0.96-0.172,1.9-0.515,2.82c-0.344,0.92-0.836,1.747-1.477,2.481c-0.641,0.735-1.394,1.315-2.262,1.741
			c-0.865,0.426-1.8,0.639-2.802,0.639c-0.581,0-1.032-0.098-1.354-0.296c-0.322-0.196-0.537-0.51-0.644-0.94
			c-0.623,0.617-1.34,1.005-2.149,1.166c-0.81,0.161-1.594,0.086-2.353-0.226c-0.758-0.311-1.373-0.836-1.842-1.573
			c-0.469-0.738-0.703-1.647-0.703-2.729c0-1.124,0.242-2.23,0.724-3.319c0.485-1.089,1.172-1.98,2.063-2.675
			c0.892-0.694,1.9-1.042,3.023-1.042C32.528,12.035,33.474,12.518,34.075,13.485z M28.2,19.051c0,0.859,0.178,1.518,0.537,1.976
			c0.358,0.459,0.826,0.688,1.406,0.688c0.674,0,1.266-0.269,1.78-0.806c0.512-0.537,0.9-1.215,1.164-2.036
			c0.265-0.819,0.398-1.612,0.398-2.379c0-0.379-0.045-0.721-0.134-1.026c-0.09-0.304-0.223-0.571-0.397-0.8
			c-0.176-0.229-0.387-0.403-0.635-0.521c-0.246-0.118-0.527-0.177-0.843-0.177c-0.629,0-1.198,0.245-1.702,0.735
			c-0.505,0.491-0.894,1.128-1.166,1.912C28.335,17.402,28.2,18.212,28.2,19.051z"/>
	</g>
</g>
<g>
</g>
<g>
</g>
<g>
</g>
<g>
</g>
<g>
</g>
<g>
</g>
<g>
</g>
<g>
</g>
<g>
</g>
<g>
</g>
<g>
</g>
<g>
</g>
<g>
</g>
<g>
</g>
<g>
</g>
</svg>
