<?xml version="1.0" encoding="iso-8859-1"?>
<!-- Generator: Adobe Illustrator 19.1.0, SVG Export Plug-In . SVG Version: 6.00 Build 0)  -->
<svg version="1.1" id="Capa_1" xmlns="http://www.w3.org/2000/svg" xmlns:xlink="http://www.w3.org/1999/xlink" x="0px" y="0px"
	 viewBox="0 0 68.436 68.436" style="enable-background:new 0 0 68.436 68.436;" xml:space="preserve">
<g>
	<g id="group-58svg">
		<path id="path-1_53_" style="fill:#81BDA4;" d="M60.592,18.758c4.493,0,7.408,3.642,7.408,8.136v23.389
			c0,4.493-2.189,8.282-6.682,8.282H17.59c-4.493,0-9.59-3.789-9.59-8.282V26.894c0-4.494,4.006-8.136,8.499-8.136l0,0"/>
		<path id="path-2_53_" style="fill:#FFFFFF;" d="M68.436,23.843L43.479,39.06c-2.473,1.413-5.505,1.43-7.995,0.044L10.979,23.843
			l0,0"/>
		<path id="path-3_53_" d="M54.318,57.565H10.59C5.476,57.565,0,53.836,0,48.284V24.893c0-5.222,4.521-9.635,9.874-9.635
			c0.828,0,1.5,0.672,1.5,1.5c0,0.829-0.672,1.5-1.5,1.5C6.147,18.258,3,21.297,3,24.893v23.391c0,3.701,4,6.281,7.59,6.281h43.728
			c3.505,0,5.682-2.407,5.682-6.281V24.893c0-3.782-2.648-6.635-6.158-6.635c-0.828,0-1.5-0.671-1.5-1.5c0-0.828,0.672-1.5,1.5-1.5
			c5.22,0,9.158,4.142,9.158,9.635v23.391C63,53.835,59.511,57.565,54.318,57.565z"/>
		<path id="path-4_42_" d="M32.422,39.62c-1.617,0-3.227-0.402-4.667-1.205L3.186,23.116c-0.703-0.438-0.918-1.363-0.48-2.066
			c0.438-0.705,1.364-0.916,2.066-0.481l24.505,15.262c1.955,1.086,4.453,1.07,6.458-0.074l23.897-15.18
			c0.7-0.445,1.626-0.238,2.071,0.462c0.443,0.699,0.237,1.626-0.462,2.07L37.284,38.326C35.773,39.189,34.094,39.62,32.422,39.62z"
			/>
		<path id="path-5_27_" d="M34.502,15.703l0.268-1.192h2.836l-1.632,7.702c-0.101,0.487-0.151,0.809-0.151,0.967
			c0,0.165,0.041,0.294,0.123,0.386c0.083,0.094,0.182,0.14,0.296,0.14c0.387,0,0.886-0.252,1.499-0.757
			c0.612-0.505,1.146-1.193,1.6-2.063c0.455-0.87,0.682-1.821,0.682-2.852c0-0.859-0.163-1.668-0.489-2.428
			c-0.325-0.758-0.796-1.418-1.412-1.976c-0.616-0.559-1.377-0.995-2.283-1.311c-0.905-0.315-1.932-0.472-3.077-0.472
			c-1.167,0-2.239,0.152-3.212,0.456c-0.974,0.305-1.83,0.741-2.568,1.311c-0.737,0.569-1.353,1.273-1.847,2.111
			c-0.437,0.73-0.77,1.54-0.999,2.427c-0.23,0.888-0.344,1.794-0.344,2.718c0,1.232,0.245,2.358,0.736,3.378
			c0.491,1.021,1.203,1.877,2.137,2.568c0.936,0.691,2.064,1.181,3.39,1.472c1.325,0.289,2.821,0.349,4.49,0.177
			c1.325-0.157,2.447-0.459,3.368-0.903c0.92-0.444,1.698-1.067,2.336-1.869h2.288c-0.372,0.766-0.857,1.451-1.456,2.052
			c-0.598,0.602-1.298,1.108-2.1,1.52c-0.801,0.412-1.701,0.725-2.696,0.94s-2.08,0.322-3.255,0.322
			c-1.762,0-3.347-0.23-4.759-0.692c-1.411-0.463-2.597-1.129-3.561-1.998c-0.963-0.871-1.692-1.909-2.186-3.116
			c-0.494-1.206-0.741-2.54-0.741-4.001c0-1.526,0.254-2.95,0.763-4.276c0.509-1.324,1.24-2.476,2.197-3.453
			c0.955-0.978,2.123-1.742,3.502-2.294c1.378-0.551,2.899-0.827,4.56-0.827c1.36,0,2.608,0.199,3.743,0.596
			c1.136,0.398,2.107,0.969,2.917,1.714c0.809,0.745,1.427,1.627,1.852,2.648c0.427,1.02,0.64,2.147,0.64,3.378
			c0,0.96-0.172,1.9-0.516,2.82c-0.343,0.92-0.836,1.747-1.477,2.481c-0.641,0.735-1.395,1.315-2.261,1.741
			c-0.866,0.426-1.801,0.639-2.804,0.639c-0.58,0-1.031-0.098-1.353-0.296c-0.322-0.196-0.537-0.51-0.645-0.94
			c-0.623,0.617-1.339,1.005-2.148,1.166c-0.81,0.161-1.594,0.086-2.353-0.226c-0.758-0.311-1.373-0.836-1.842-1.573
			c-0.469-0.738-0.704-1.647-0.704-2.729c0-1.124,0.243-2.23,0.725-3.319c0.484-1.089,1.172-1.98,2.063-2.675
			c0.892-0.694,1.9-1.042,3.024-1.042C32.955,14.253,33.9,14.736,34.502,15.703z M28.626,21.268c0,0.859,0.179,1.518,0.537,1.976
			c0.358,0.459,0.827,0.688,1.407,0.688c0.673,0,1.266-0.269,1.779-0.806c0.511-0.537,0.9-1.215,1.165-2.036
			c0.264-0.819,0.397-1.612,0.397-2.379c0-0.379-0.045-0.721-0.135-1.026c-0.089-0.304-0.221-0.571-0.396-0.8
			c-0.176-0.229-0.387-0.403-0.635-0.521c-0.246-0.118-0.527-0.177-0.843-0.177c-0.63,0-1.198,0.245-1.702,0.735
			c-0.506,0.491-0.893,1.128-1.166,1.912C28.762,19.619,28.626,20.43,28.626,21.268z"/>
	</g>
</g>
<g>
</g>
<g>
</g>
<g>
</g>
<g>
</g>
<g>
</g>
<g>
</g>
<g>
</g>
<g>
</g>
<g>
</g>
<g>
</g>
<g>
</g>
<g>
</g>
<g>
</g>
<g>
</g>
<g>
</g>
</svg>
